<svg aria-hidden="true" style="width:0;height:0;position:absolute;overflow:hidden" xmlns="http://www.w3.org/2000/svg"><defs><symbol id="arrow_up" viewBox="0 0 32 32"><path stroke-linejoin="round" stroke-linecap="round" stroke-width="2.667" d="m8 20 8-8 8 8"/></symbol><symbol id="arrow_down" viewBox="0 0 53 32"><path d="M.781 2.114a2.667 2.667 0 0 1 3.771 0l22.114 22.114L48.78 2.114a2.667 2.667 0 0 1 3.771 3.771l-24 24a2.667 2.667 0 0 1-3.771 0l-24-24a2.667 2.667 0 0 1 0-3.771z"/></symbol><symbol id="arrow_up_solid" viewBox="0 0 32 32"><path d="M17.379 4.344a1.6 1.6 0 0 0-2.758 0L0 29.2h32L17.379 4.344z"/></symbol><symbol id="brain" viewBox="0 0 32 32"><path fill="#f3bb4a" style="fill:var(--color1,#f3bb4a)" d="M5.333 8.607v.528c-2.4 1.452-4 3.96-4 6.865 0 2.904 1.6 5.412 4 6.864v.66c0 1.32.4 2.509 1.2 3.433 1.067 1.452 2.8 2.376 4.8 2.376.534 0 .934 0 1.467-.132 1.067-.264 1.867-1.32 1.867-2.508V5.307c0-1.188-.8-2.244-1.867-2.508-.533-.132-1.067-.132-1.6-.132-3.2 0-5.866 2.64-5.866 5.94zm25.334 7.66c0-2.934-1.6-5.467-4-6.934v-.667c0-3.333-2.667-6-6-6-.534 0-.934 0-1.467.134-1.2.267-1.866 1.333-1.866 2.533v21.334c0 1.2.8 2.266 1.866 2.533.4.133.934.133 1.467.133 3.333 0 6-2.666 6-6V22.8c2.533-1.067 4-3.6 4-6.534z"/></symbol><symbol id="checkbox_checked" viewBox="0 0 32 32"><path fill="none" stroke-linejoin="round" stroke-linecap="round" stroke-width="2.667" stroke="#000" d="m21.143 10.667-7.467 10.667-3.2-4.267"/><path fill="none" stroke-linejoin="round" stroke-width="2.667" stroke="#000" d="M26 2.667H6A3.333 3.333 0 0 0 2.667 6v20A3.333 3.333 0 0 0 6 29.333h20A3.333 3.333 0 0 0 29.333 26V6A3.333 3.333 0 0 0 26 2.667z"/></symbol><symbol id="checked_mark" viewBox="0 0 32 32"><path fill="none" stroke-linejoin="round" stroke-linecap="round" stroke-width="2.667" stroke="#000" d="m21.143 10.667-7.467 10.667-3.2-4.267"/></symbol><symbol id="checkbox" viewBox="0 0 32 32"><path fill="none" stroke-linejoin="round" stroke-width="2.667" stroke="#000" d="M26 2.667H6A3.333 3.333 0 0 0 2.667 6v20A3.333 3.333 0 0 0 6 29.333h20A3.333 3.333 0 0 0 29.333 26V6A3.333 3.333 0 0 0 26 2.667z"/></symbol><symbol id="telegram" viewBox="0 0 28 32"><path fill="#fff" style="fill:var(--color2,#fff)" d="m26.18 6.163-3.697 19.925c-.28 1.406-1.007 1.756-2.04 1.094l-5.633-4.744-2.718 2.988c-.301.344-.552.631-1.132.631l.405-6.556 10.44-10.78c.454-.463-.1-.72-.706-.257L8.193 17.752l-5.556-1.988c-1.209-.43-1.23-1.38.252-2.044L24.62 4.151c1.006-.43 1.887.256 1.559 2.013z"/></symbol><symbol id="close_modal" viewBox="0 0 32 32"><path fill="none" stroke-linecap="round" stroke-width="2.667" stroke="#000" d="M26.667 26.667 5.334 5.334m21.333-.001L5.334 26.666"/></symbol><symbol id="confirm" viewBox="0 0 32 32"><path fill="#f3bb4a" style="fill:var(--color1,#f3bb4a)" d="M28.84 1.603c-.526-.395-1.315-.395-1.841.263L23.184 6.6c-2.104-1.446-4.603-2.236-7.365-2.236-7.234 0-13.152 5.919-13.152 13.152s5.918 13.15 13.152 13.15c7.234 0 13.152-5.917 13.152-13.15 0-2.63-.789-4.998-2.104-7.102l-1.841 2.104-7.629 9.6c-.263.264-.657.527-1.052.527s-.657-.132-.92-.395L9.768 16.2c-.395-.394-.395-1.051-.263-1.446 0-.132.131-.263.263-.395a1.27 1.27 0 0 1 1.841-.001v.001l4.604 4.998 7.233-9.074 1.579-2.105 3.814-4.734c.658-.526.658-1.315 0-1.841z"/></symbol><symbol id="exclamation" viewBox="0 0 32 32"><path fill="none" stroke-linejoin="round" stroke-linecap="round" stroke-width="3.048" stroke="#000" d="M16 24.888v.012m0-5.09V7.111"/></symbol><symbol id="fix" viewBox="0 0 32 32"><path fill="#f3bb4a" style="fill:var(--color1,#f3bb4a)" d="M8.77 30.667c-1.081 0-2.028-.402-2.704-1.073l-3.65-3.62c-.677-.67-1.083-1.744-1.083-2.682 0-.939.406-2.012 1.082-2.682l4.192-4.425c-.811-3.486 0-7.107 2.029-9.923 3.38-4.425 9.06-6.034 14.198-4.157.406.134.811.537.811.939s0 .939-.405 1.207l-4.057 4.022c-.676.67-1.082 1.61-1.082 2.548 0 .805.406 1.61.947 2.146.54.536 1.352.804 2.163.804.812 0 1.623-.268 2.164-.938l4.327-4.291c.27-.269.811-.403 1.217-.403.406.134.811.403.947.805 1.757 4.425.54 9.52-2.84 12.873-2.975 2.95-7.302 4.157-11.494 3.218l-4.057 4.425c-.676.805-1.622 1.207-2.704 1.207z"/></symbol><symbol id="lightning" viewBox="0 0 32 32"><path fill="#f3bb4a" style="fill:var(--color1,#f3bb4a)" d="M11.334 30.667c-.4 0-.8-.134-1.2-.267-1.067-.533-1.6-1.6-1.334-2.666L10.4 20H8c-1.066 0-2-.666-2.4-1.6-.4-.933-.266-2 .534-2.666L18.8 2.266c.8-.8 2.134-1.067 3.067-.533 1.067.533 1.6 1.6 1.333 2.666l-1.6 7.733H24c1.067 0 2 .667 2.4 1.6s.267 2-.533 2.667L13.2 29.867c-.533.533-1.2.8-1.866.8z"/></symbol><symbol id="minus_order" viewBox="0 0 32 32"><path fill="none" stroke-linejoin="round" stroke-linecap="round" stroke-width="2.286" stroke="#000" d="M6.667 16h18.665"/></symbol><symbol id="instagram" viewBox="0 0 32 32"><path fill="#fff" style="fill:var(--color2,#fff)" d="M16 10a6 6 0 1 0 0 12 6 6 0 1 0 0-12zm0 10a4 4 0 1 1 4-4 4.013 4.013 0 0 1-3.999 4H16zm5.5-16.5h-11a7 7 0 0 0-7 7v11a7 7 0 0 0 7 7h11a7 7 0 0 0 7-7v-11a7 7 0 0 0-7-7zm5 18a5 5 0 0 1-5 5h-11a5 5 0 0 1-5-5v-11a5 5 0 0 1 5-5h11a5 5 0 0 1 5 5v11zM24 9.5a1.5 1.5 0 0 1-3 0 1.5 1.5 0 0 1 3 0z"/></symbol><symbol id="pin" viewBox="0 0 32 32"><path fill="#f3bb4a" style="fill:var(--color1,#f3bb4a)" d="M30.228 12.389 19.686 1.776c-.586-.59-1.464-.59-2.05 0-.271.261-.439.627-.439 1.032s.168.771.438 1.031l.293.295-8.492 6.044-4.685.59c-1.464.294-2.782 1.326-3.22 2.653-.44 1.326-.147 2.948.878 3.832l5.124 5.16-3.66 3.684c-.271.261-.439.627-.439 1.032s.168.771.439 1.032c.293.295.732.442 1.025.442.292 0 .732-.147 1.024-.442l3.66-3.685 5.125 5.159c.732.737 1.61 1.032 2.635 1.032.44 0 .879 0 1.172-.148 1.464-.442 2.489-1.768 2.635-3.242l.732-4.717 5.857-8.402.439.442c.293.295.732.442 1.025.442s.732-.147 1.025-.442c.585-.59.585-1.622 0-2.211z"/></symbol><symbol id="plus" viewBox="0 0 32 32"><path fill="none" stroke-width="1.104" stroke="#000" d="M16 .552C24.532.552 31.448 7.468 31.448 16S24.532 31.448 16 31.448.552 24.532.552 16 7.468.552 16 .552z"/><path fill="none" stroke-linejoin="round" stroke-linecap="round" stroke-width="1.655" stroke="#000" d="M12.029 16h7.944M16 12.027v7.947"/></symbol><symbol id="plus_order" viewBox="0 0 32 32"><path fill="none" stroke-linejoin="round" stroke-linecap="round" stroke-width="2.286" stroke="#000" d="M16 6.667v18.665M6.667 16h18.665"/></symbol><symbol id="quotes" viewBox="0 0 32 32"><path fill="#fff" style="fill:var(--color2,#fff)" d="M23.799 14.531c-1.546.613-2.786.451-3.719-.481-.934-.934-1.211-2.422-.831-4.463.291-1.517.933-2.683 1.925-3.501.962-.787 2.086-1.181 3.369-1.181 1.749 0 2.96.671 3.631 2.011.671 1.371.802 3.209.393 5.513a19.33 19.33 0 0 1-1.185 3.933l.048-.128c-.526 1.285-1.225 2.597-2.099 3.938-.875 1.342-2.013 2.509-3.413 3.501a11.113 11.113 0 0 1-4.571 1.915l-.067.01.438-4.638c1.429-.291 2.697-1.035 3.806-2.231 1.109-1.167 1.867-2.567 2.274-4.2zm-13.169 0c-1.545.613-2.785.451-3.719-.481-.933-.934-1.21-2.422-.831-4.463.291-1.517.934-2.683 1.925-3.501.962-.787 2.086-1.181 3.369-1.181 1.75 0 2.96.671 3.631 2.011.671 1.371.802 3.209.394 5.513a19.33 19.33 0 0 1-1.185 3.933l.048-.128c-.526 1.285-1.225 2.597-2.101 3.938s-2.013 2.509-3.413 3.501a11.113 11.113 0 0 1-4.571 1.915l-.067.01.438-4.638c1.429-.291 2.697-1.035 3.806-2.231 1.109-1.167 1.867-2.567 2.275-4.2z"/></symbol><symbol id="radio_button_checked" viewBox="0 0 32 32"><path fill="none" stroke="#3c3b3b" style="stroke:var(--color3,#3c3b3b)" stroke-width="1.6" d="M31.2 16c0 8.395-6.805 15.2-15.2 15.2S.8 24.395.8 16 7.605.8 16 .8 31.2 7.605 31.2 16z"/><path fill="#01a045" style="fill:var(--color4,#01a045)" d="M24 16a8 8 0 1 1-16 0 8 8 0 0 1 16 0z"/></symbol><symbol id="radio_button" viewBox="0 0 32 32"><path fill="none" stroke-width="1.6" stroke="#000" d="M31.2 16c0 8.395-6.805 15.2-15.2 15.2S.8 24.395.8 16 7.605.8 16 .8 31.2 7.605 31.2 16z"/></symbol><symbol id="stars" viewBox="0 0 32 32"><path fill="#f3bb4a" style="fill:var(--color1,#f3bb4a)" d="M20.8 20.933c-.534 0-.934-.266-1.2-.666l-1.6-2.8c-.667-1.467-2-2.8-3.467-3.6l-2.8-1.6c-.4-.133-.667-.667-.667-1.067 0-.533.267-.933.667-1.2l2.8-1.6c1.467-.8 2.8-2 3.6-3.6l1.6-2.8c.133-.4.667-.667 1.067-.667.533 0 .933.267 1.2.667l1.6 2.8a9.419 9.419 0 0 0 3.554 3.576l.046.024L30 10c.4.267.666.667.666 1.2 0 .534-.266.934-.666 1.2L27.2 14a9.419 9.419 0 0 0-3.576 3.554l-.024.046-1.6 2.8c-.267.267-.667.534-1.2.534zM8.667 30.666c-.534 0-.933-.266-1.2-.666l-.8-1.6a6.879 6.879 0 0 0-3.028-3.049l-.039-.018-1.6-.8c-.4-.267-.667-.8-.667-1.2 0-.533.267-.933.667-1.2l1.6-.8a6.884 6.884 0 0 0 3.049-3.028l.018-.039.8-1.6c.533-.8 1.867-.8 2.4 0l.8 1.6a6.882 6.882 0 0 0 3.027 3.049l.039.018 1.6.8c.4.267.667.667.667 1.2s-.267.933-.666 1.2l-1.467.8a6.879 6.879 0 0 0-3.049 3.028l-.018.039L10 30c-.4.4-.8.666-1.333.666z"/></symbol><symbol id="warning" viewBox="0 0 32 32"><path fill="#f7434b" style="fill:var(--color5,#f7434b)" d="M16 22.666c.378 0 .694-.128.95-.384.256-.254.384-.571.384-.949v-.03c0-.36-.147-.686-.384-.92a1.291 1.291 0 0 0-.92-.384h-.031.002-.032c-.359 0-.684.147-.918.384-.237.234-.384.56-.384.919v.033-.002c0 .378.128.694.384.95s.573.384.95.384zm0 6.667h-.087c-1.848 0-3.606-.386-5.197-1.082l.083.033a13.537 13.537 0 0 1-4.234-2.85 13.475 13.475 0 0 1-2.814-4.147l-.034-.087c-.666-1.51-1.053-3.27-1.053-5.121v-.084.004-.087c0-1.848.386-3.606 1.082-5.197l-.033.083a13.537 13.537 0 0 1 2.85-4.234 13.52 13.52 0 0 1 4.148-2.818l.087-.034c1.508-.663 3.265-1.048 5.112-1.048h.092-.005c1.845 0 3.578.349 5.2 1.048a13.554 13.554 0 0 1 4.234 2.852 13.475 13.475 0 0 1 2.814 4.147l.034.087c.665 1.509 1.051 3.268 1.051 5.117v.088-.005.087c0 1.848-.386 3.606-1.082 5.197l.033-.083a13.537 13.537 0 0 1-2.85 4.234 13.475 13.475 0 0 1-4.147 2.814l-.087.034c-1.509.665-3.268 1.051-5.117 1.051h-.088.004zm0-12c.378 0 .694-.128.95-.384s.384-.571.384-.949v-5.364c0-.36-.147-.686-.384-.92a1.29 1.29 0 0 0-.918-.383h-.034H16h-.032c-.359 0-.684.147-.918.384-.237.234-.384.56-.384.919v.031-.002 5.334c0 .378.128.694.384.949.256.256.573.384.95.384z"/></symbol></defs></svg>