<svg aria-hidden="true" style="width:0;height:0;position:absolute;overflow:hidden" xmlns="http://www.w3.org/2000/svg"><defs><symbol id="arrow_up" viewBox="0 0 32 32"><path stroke-linejoin="round" stroke-linecap="round" stroke-width="2.667" d="m8 20 8-8 8 8"/></symbol><symbol id="arrow_down" viewBox="0 0 53 32"><path d="M.781 2.114a2.667 2.667 0 0 1 3.771 0l22.114 22.114L48.78 2.114a2.667 2.667 0 0 1 3.771 3.771l-24 24a2.667 2.667 0 0 1-3.771 0l-24-24a2.667 2.667 0 0 1 0-3.771z"/></symbol><symbol id="arrow_up_solid" viewBox="0 0 32 32"><path d="M17.379 4.344a1.6 1.6 0 0 0-2.758 0L0 29.2h32L17.379 4.344z"/></symbol><symbol id="brain" viewBox="0 0 32 32"><path fill="#f3bb4a" style="fill:var(--color1,#f3bb4a)" d="M5.333 8.607v.528c-2.4 1.452-4 3.96-4 6.865 0 2.904 1.6 5.412 4 6.864v.66c0 1.32.4 2.509 1.2 3.433 1.067 1.452 2.8 2.376 4.8 2.376.534 0 .934 0 1.467-.132 1.067-.264 1.867-1.32 1.867-2.508V5.307c0-1.188-.8-2.244-1.867-2.508-.533-.132-1.067-.132-1.6-.132-3.2 0-5.866 2.64-5.866 5.94zm25.334 7.66c0-2.934-1.6-5.467-4-6.934v-.667c0-3.333-2.667-6-6-6-.534 0-.934 0-1.467.134-1.2.267-1.866 1.333-1.866 2.533v21.334c0 1.2.8 2.266 1.866 2.533.4.133.934.133 1.467.133 3.333 0 6-2.666 6-6V22.8c2.533-1.067 4-3.6 4-6.534z"/></symbol><symbol id="checkbox_checked" viewBox="0 0 32 32"><path fill="none" stroke-linejoin="round" stroke-linecap="round" stroke-width="2.667" stroke="#000" d="m21.143 10.667-7.467 10.667-3.2-4.267"/><path fill="none" stroke-linejoin="round" stroke-width="2.667" stroke="#000" d="M26 2.667H6A3.333 3.333 0 0 0 2.667 6v20A3.333 3.333 0 0 0 6 29.333h20A3.333 3.333 0 0 0 29.333 26V6A3.333 3.333 0 0 0 26 2.667z"/></symbol><symbol id="checked_mark" viewBox="0 0 32 32"><path fill="none" stroke-linejoin="round" stroke-linecap="round" stroke-width="2.667" stroke="#000" d="m21.143 10.667-7.467 10.667-3.2-4.267"/></symbol><symbol id="checkbox" viewBox="0 0 32 32"><path fill="none" stroke-linejoin="round" stroke-width="2.667" stroke="#000" d="M26 2.667H6A3.333 3.333 0 0 0 2.667 6v20A3.333 3.333 0 0 0 6 29.333h20A3.333 3.333 0 0 0 29.333 26V6A3.333 3.333 0 0 0 26 2.667z"/></symbol><symbol id="telegram" viewBox="0 0 28 32"><path d="m26.18 6.163-3.697 19.925c-.28 1.406-1.007 1.756-2.04 1.094l-5.633-4.744-2.718 2.988c-.301.344-.552.631-1.132.631l.405-6.556 10.44-10.78c.454-.463-.1-.72-.706-.257L8.193 17.752l-5.556-1.988c-1.209-.43-1.23-1.38.252-2.044L24.62 4.151c1.006-.43 1.887.256 1.559 2.013z"/></symbol><symbol id="close_modal" viewBox="0 0 32 32"><path fill="none" stroke-linecap="round" stroke-width="2.667" stroke="#000" d="M26.667 26.667 5.334 5.334m21.333-.001L5.334 26.666"/></symbol><symbol id="confirm" viewBox="0 0 32 32"><path fill="#f3bb4a" style="fill:var(--color1,#f3bb4a)" d="M28.84 1.603c-.526-.395-1.315-.395-1.841.263L23.184 6.6c-2.104-1.446-4.603-2.236-7.365-2.236-7.234 0-13.152 5.919-13.152 13.152s5.918 13.15 13.152 13.15c7.234 0 13.152-5.917 13.152-13.15 0-2.63-.789-4.998-2.104-7.102l-1.841 2.104-7.629 9.6c-.263.264-.657.527-1.052.527s-.657-.132-.92-.395L9.768 16.2c-.395-.394-.395-1.051-.263-1.446 0-.132.131-.263.263-.395a1.27 1.27 0 0 1 1.841-.001v.001l4.604 4.998 7.233-9.074 1.579-2.105 3.814-4.734c.658-.526.658-1.315 0-1.841z"/></symbol><symbol id="exclamation" viewBox="0 0 32 32"><path fill="none" stroke-linejoin="round" stroke-linecap="round" stroke-width="3.048" stroke="#000" d="M16 24.888v.012m0-5.09V7.111"/></symbol><symbol id="fix" viewBox="0 0 32 32"><path fill="#f3bb4a" style="fill:var(--color1,#f3bb4a)" d="M8.77 30.667c-1.081 0-2.028-.402-2.704-1.073l-3.65-3.62c-.677-.67-1.083-1.744-1.083-2.682 0-.939.406-2.012 1.082-2.682l4.192-4.425c-.811-3.486 0-7.107 2.029-9.923 3.38-4.425 9.06-6.034 14.198-4.157.406.134.811.537.811.939s0 .939-.405 1.207l-4.057 4.022c-.676.67-1.082 1.61-1.082 2.548 0 .805.406 1.61.947 2.146.54.536 1.352.804 2.163.804.812 0 1.623-.268 2.164-.938l4.327-4.291c.27-.269.811-.403 1.217-.403.406.134.811.403.947.805 1.757 4.425.54 9.52-2.84 12.873-2.975 2.95-7.302 4.157-11.494 3.218l-4.057 4.425c-.676.805-1.622 1.207-2.704 1.207z"/></symbol><symbol id="lightning" viewBox="0 0 32 32"><path fill="#f3bb4a" style="fill:var(--color1,#f3bb4a)" d="M11.334 30.667c-.4 0-.8-.134-1.2-.267-1.067-.533-1.6-1.6-1.334-2.666L10.4 20H8c-1.066 0-2-.666-2.4-1.6-.4-.933-.266-2 .534-2.666L18.8 2.266c.8-.8 2.134-1.067 3.067-.533 1.067.533 1.6 1.6 1.333 2.666l-1.6 7.733H24c1.067 0 2 .667 2.4 1.6s.267 2-.533 2.667L13.2 29.867c-.533.533-1.2.8-1.866.8z"/></symbol><symbol id="minus_order" viewBox="0 0 32 32"><path fill="none" stroke-linejoin="round" stroke-linecap="round" stroke-width="2.286" stroke="#000" d="M6.667 16h18.665"/></symbol><symbol id="instagram" viewBox="0 0 32 32"><path d="M16 10a6 6 0 1 0 0 12 6 6 0 1 0 0-12zm0 10a4 4 0 1 1 4-4 4.013 4.013 0 0 1-3.999 4H16zm5.5-16.5h-11a7 7 0 0 0-7 7v11a7 7 0 0 0 7 7h11a7 7 0 0 0 7-7v-11a7 7 0 0 0-7-7zm5 18a5 5 0 0 1-5 5h-11a5 5 0 0 1-5-5v-11a5 5 0 0 1 5-5h11a5 5 0 0 1 5 5v11zM24 9.5a1.5 1.5 0 0 1-3 0 1.5 1.5 0 0 1 3 0z"/></symbol><symbol id="pin" viewBox="0 0 32 32"><path fill="#f3bb4a" style="fill:var(--color1,#f3bb4a)" d="M30.228 12.389 19.686 1.776c-.586-.59-1.464-.59-2.05 0-.271.261-.439.627-.439 1.032s.168.771.438 1.031l.293.295-8.492 6.044-4.685.59c-1.464.294-2.782 1.326-3.22 2.653-.44 1.326-.147 2.948.878 3.832l5.124 5.16-3.66 3.684c-.271.261-.439.627-.439 1.032s.168.771.439 1.032c.293.295.732.442 1.025.442.292 0 .732-.147 1.024-.442l3.66-3.685 5.125 5.159c.732.737 1.61 1.032 2.635 1.032.44 0 .879 0 1.172-.148 1.464-.442 2.489-1.768 2.635-3.242l.732-4.717 5.857-8.402.439.442c.293.295.732.442 1.025.442s.732-.147 1.025-.442c.585-.59.585-1.622 0-2.211z"/></symbol><symbol id="plus" viewBox="0 0 32 32"><path stroke-width="0" d="M16 .552C24.532.552 31.448 7.468 31.448 16S24.532 31.448 16 31.448.552 24.532.552 16 7.468.552 16 .552z"/><path stroke-linejoin="round" stroke-linecap="round" stroke-width="1.655" d="M12.029 16h7.944M16 12.027v7.947"/></symbol><symbol id="plus_order" viewBox="0 0 32 32"><path fill="none" stroke-linejoin="round" stroke-linecap="round" stroke-width="2.286" stroke="#000" d="M16 6.667v18.665M6.667 16h18.665"/></symbol><symbol id="quotes" viewBox="0 0 32 32"><path fill="#fff" style="fill:var(--color2,#fff)" d="M23.799 14.531c-1.546.613-2.786.451-3.719-.481-.934-.934-1.211-2.422-.831-4.463.291-1.517.933-2.683 1.925-3.501.962-.787 2.086-1.181 3.369-1.181 1.749 0 2.96.671 3.631 2.011.671 1.371.802 3.209.393 5.513a19.33 19.33 0 0 1-1.185 3.933l.048-.128c-.526 1.285-1.225 2.597-2.099 3.938-.875 1.342-2.013 2.509-3.413 3.501a11.113 11.113 0 0 1-4.571 1.915l-.067.01.438-4.638c1.429-.291 2.697-1.035 3.806-2.231 1.109-1.167 1.867-2.567 2.274-4.2zm-13.169 0c-1.545.613-2.785.451-3.719-.481-.933-.934-1.21-2.422-.831-4.463.291-1.517.934-2.683 1.925-3.501.962-.787 2.086-1.181 3.369-1.181 1.75 0 2.96.671 3.631 2.011.671 1.371.802 3.209.394 5.513a19.33 19.33 0 0 1-1.185 3.933l.048-.128c-.526 1.285-1.225 2.597-2.101 3.938s-2.013 2.509-3.413 3.501a11.113 11.113 0 0 1-4.571 1.915l-.067.01.438-4.638c1.429-.291 2.697-1.035 3.806-2.231 1.109-1.167 1.867-2.567 2.275-4.2z"/></symbol><symbol id="radio_button_checked" viewBox="0 0 32 32"><path fill="none" stroke="#3c3b3b" style="stroke:var(--color3,#3c3b3b)" stroke-width="1.6" d="M31.2 16c0 8.395-6.805 15.2-15.2 15.2S.8 24.395.8 16 7.605.8 16 .8 31.2 7.605 31.2 16z"/><path fill="#01a045" style="fill:var(--color4,#01a045)" d="M24 16a8 8 0 1 1-16 0 8 8 0 0 1 16 0z"/></symbol><symbol id="radio_button" viewBox="0 0 32 32"><path fill="none" stroke-width="1.6" stroke="#000" d="M31.2 16c0 8.395-6.805 15.2-15.2 15.2S.8 24.395.8 16 7.605.8 16 .8 31.2 7.605 31.2 16z"/></symbol><symbol id="stars" viewBox="0 0 32 32"><path fill="#f3bb4a" style="fill:var(--color1,#f3bb4a)" d="M20.8 20.933c-.534 0-.934-.266-1.2-.666l-1.6-2.8c-.667-1.467-2-2.8-3.467-3.6l-2.8-1.6c-.4-.133-.667-.667-.667-1.067 0-.533.267-.933.667-1.2l2.8-1.6c1.467-.8 2.8-2 3.6-3.6l1.6-2.8c.133-.4.667-.667 1.067-.667.533 0 .933.267 1.2.667l1.6 2.8a9.419 9.419 0 0 0 3.554 3.576l.046.024L30 10c.4.267.666.667.666 1.2 0 .534-.266.934-.666 1.2L27.2 14a9.419 9.419 0 0 0-3.576 3.554l-.024.046-1.6 2.8c-.267.267-.667.534-1.2.534zM8.667 30.666c-.534 0-.933-.266-1.2-.666l-.8-1.6a6.879 6.879 0 0 0-3.028-3.049l-.039-.018-1.6-.8c-.4-.267-.667-.8-.667-1.2 0-.533.267-.933.667-1.2l1.6-.8a6.884 6.884 0 0 0 3.049-3.028l.018-.039.8-1.6c.533-.8 1.867-.8 2.4 0l.8 1.6a6.882 6.882 0 0 0 3.027 3.049l.039.018 1.6.8c.4.267.667.667.667 1.2s-.267.933-.666 1.2l-1.467.8a6.879 6.879 0 0 0-3.049 3.028l-.018.039L10 30c-.4.4-.8.666-1.333.666z"/></symbol><symbol id="warning" viewBox="0 0 32 32"><path fill="#f7434b" style="fill:var(--color5,#f7434b)" d="M16 22.666c.378 0 .694-.128.95-.384.256-.254.384-.571.384-.949v-.03c0-.36-.147-.686-.384-.92a1.291 1.291 0 0 0-.92-.384h-.031.002-.032c-.359 0-.684.147-.918.384-.237.234-.384.56-.384.919v.033-.002c0 .378.128.694.384.95s.573.384.95.384zm0 6.667h-.087c-1.848 0-3.606-.386-5.197-1.082l.083.033a13.537 13.537 0 0 1-4.234-2.85 13.475 13.475 0 0 1-2.814-4.147l-.034-.087c-.666-1.51-1.053-3.27-1.053-5.121v-.084.004-.087c0-1.848.386-3.606 1.082-5.197l-.033.083a13.537 13.537 0 0 1 2.85-4.234 13.52 13.52 0 0 1 4.148-2.818l.087-.034c1.508-.663 3.265-1.048 5.112-1.048h.092-.005c1.845 0 3.578.349 5.2 1.048a13.554 13.554 0 0 1 4.234 2.852 13.475 13.475 0 0 1 2.814 4.147l.034.087c.665 1.509 1.051 3.268 1.051 5.117v.088-.005.087c0 1.848-.386 3.606-1.082 5.197l.033-.083a13.537 13.537 0 0 1-2.85 4.234 13.475 13.475 0 0 1-4.147 2.814l-.087.034c-1.509.665-3.268 1.051-5.117 1.051h-.088.004zm0-12c.378 0 .694-.128.95-.384s.384-.571.384-.949v-5.364c0-.36-.147-.686-.384-.92a1.29 1.29 0 0 0-.918-.383h-.034H16h-.032c-.359 0-.684.147-.918.384-.237.234-.384.56-.384.919v.031-.002 5.334c0 .378.128.694.384.949.256.256.573.384.95.384z"/></symbol><symbol id="reset_order" viewBox="0 0 15 14"><path stroke="#000" stroke-linecap="round" stroke-linejoin="round" stroke-width="1.5" d="m11.344 3.5-7 7m0-7 7 7"/></symbol><symbol id="logo" viewBox="0 0 624 177"><path fill="#111" d="M93.257 111.394V66.952H51.766v70.416H16.795V66.952H0v-27.32h16.794v-5.194C16.794 14.237 29.044 0 53.544 0c10.471 0 19.56 1.347 27.463 4.232v26.166c-5.335-1.924-11.065-2.886-17.19-2.886-8.1 0-12.051 3.462-12.051 10.39v1.73h41.49V2.692h34.972v100.622c0 5.002 2.37 7.504 7.112 7.504 2.174 0 4.149-.386 5.927-1.347v26.742c-4.939 2.502-11.46 3.655-19.363 3.655-19.165 0-28.647-9.428-28.647-28.474Zm75.875 14.624c-10.866-9.428-16.2-21.934-16.2-37.517 0-14.43 4.939-26.742 14.62-36.555 9.681-9.811 22.523-14.813 38.527-14.813 14.226 0 25.883 4.81 34.774 14.428 9.089 9.428 13.633 21.74 13.633 36.747v8.466H187.31c2.963 10.197 14.818 15.199 29.242 15.199 10.866 0 21.733-2.886 32.204-8.465v26.165c-9.483 6.733-22.721 10.196-39.91 10.196-15.609 0-28.846-4.617-39.714-13.851Zm51.173-47.33c-.198-9.81-7.31-16.544-15.807-16.544-9.285 0-16.002 6.348-17.386 16.544h33.193Zm40.903 58.679 36.156-50.407-33.589-47.328h38.133l16.398 24.24 16.401-24.24h37.933l-33.587 47.136 35.957 50.599h-38.526l-18.573-26.936-18.769 26.936h-37.934Zm125.857 35.207v-29.242c4.941 3.079 10.471 4.617 16.201 4.617 8.892 0 14.423-3.848 18.573-13.853l-42.677-94.463h37.144l22.326 58.872 20.943-58.872h36.356l-44.849 107.546c-8.3 19.816-22.13 29.821-41.69 29.821-8.496 0-16.003-1.539-22.327-4.426Zm88.418-27.732v-23.828c-.033-3.376.18-5.407.639-6.095.458-.689 1.191-1.032 2.204-1.032.755 0 1.316.211 1.679.632.361.423.545 1.306.545 2.65 0 .594-.079 1.611-.237 3.05a35.388 35.388 0 0 0-.19 4.549c3.029-3.69 5.88-6.489 8.546-8.396 2.666-1.907 5.154-2.861 7.459-2.861 1.073 0 1.885.265 2.439.797.552.533.827 1.394.827 2.58 0 4.876-2.028 9.662-6.084 14.352-4.056 4.689-7.426 7.034-10.109 7.034-.411 0-.726-.1-.948-.305-.222-.202-.33-.507-.33-.914 0-.343.101-.688.308-1.031.206-.343.543-.689 1.018-1.032l2.083-1.455c2.24-1.562 4.323-3.83 6.251-6.8 1.923-2.969 2.886-5.361 2.886-7.174 0-.688-.171-1.143-.519-1.36-.347-.22-.822-.111-1.421.326l-2.037 1.501c-3.347 2.472-5.972 5.113-7.883 7.928-1.909 2.811-2.866 5.674-2.866 8.582 0 4.751.064 8.621.191 11.607.124 2.986.3 4.948.522 5.887l.328 1.406c.286 1.282.074 2.472-.636 3.565-.711 1.095-1.586 1.642-2.629 1.642-.726 0-1.286-.291-1.682-.868-.396-.578-.592-1.43-.592-2.556 0-.437.033-1.039.097-1.805.061-.767.092-1.744.092-2.933.033-.124.049-.273.049-.445v-1.007c-.033-.127-.049-.158-.049-.094l.049-6.097Zm31.979-20.107.052 5.157c0 1.208.14 2.091.417 2.649.279.558.818.821 1.619.792.835.029 1.723-.22 2.661-.745.94-.527 1.829-1.254 2.664-2.183 1.149-1.333 1.941-2.17 2.376-2.51.433-.34.809-.511 1.122-.511.416 0 .738.115.966.347.225.232.34.551.34.954 0 1.797-1.533 3.725-4.595 5.783-3.061 2.062-5.9 3.092-8.51 3.092-1.391 0-2.438-.348-3.132-1.046-.695-.698-1.063-1.99-1.095-3.879a7.123 7.123 0 0 1-.055-.931c0-.34.018-.727.055-1.16.032-2.448.147-6.507.337-12.175.192-5.668.374-9.681.548-12.035.071-1.362.392-2.423.969-3.183.572-.759 1.38-1.153 2.428-1.184.485.031.893.171 1.223.418.331.248.497.621.497 1.114 0 .372-.166 3.005-.497 7.901-.33 4.894-.459 9.339-.39 13.335Z"/><path fill="#111" d="M536.527 133.273v.827c-.032 1.78-.274 2.963-.725 3.548-.454.581-1.179.874-2.178.874-.905 0-1.565-.332-1.985-.99-.42-.66-.515-1.45-.288-2.372a16.148 16.148 0 0 1-3.752 1.496c-1.34.353-2.639.53-3.895.53-2.067 0-3.744-.46-5.033-1.382-1.292-.921-1.921-2.15-1.89-3.684 0-2.764 1.67-5.297 5.01-7.602 3.34-2.302 6.752-2.763 10.236-1.38v-3.04c0-1.043-.21-1.78-.63-2.21-.421-.431-1.049-.645-1.889-.645-.74 0-1.555.183-2.44.553-.89.367-2.511 1.38-4.865 3.039-.969.676-1.769.915-2.397.713-.628-.199-.942-.713-.942-1.542 0-1.29 1.336-2.696 4.016-4.214 2.678-1.521 5.129-2.281 7.357-2.281 2.289 0 3.936.623 4.935 1.866.999 1.245 1.501 3.385 1.501 6.425v7.554c.643-.029 1.192.13 1.644.485.453.351.68.774.68 1.266 0 .491-.219.913-.656 1.267-.435.353-1.04.652-1.814.899Zm-4.841-1.891v-.92c-.03-1.75-.305-2.903-.821-3.455-.517-.553-1.42-.83-2.71-.83-1.615 0-3.114.555-4.501 1.659-1.387 1.106-2.081 2.212-2.081 3.316 0 .676.235 1.229.703 1.659.467.429 1.087.644 1.863.644 1.033.032 2.266-.145 3.701-.53 1.434-.384 2.72-.897 3.846-1.543Zm16.154-9.099.934-1.018c1.799-1.974 3.502-3.44 5.107-4.395 1.602-.955 3.062-1.435 4.369-1.435.95 0 1.662.278 2.137.833.474.556.81 2.87 1.008 6.941l.146 3.608c.067 1.665.181 2.908.347 3.725.161.817.258 1.781.292 2.89 0 1.05-.279 1.851-.836 2.406-.558.556-1.276.833-2.159.833-.916 0-1.605-.324-2.063-.971-.458-.648-.689-2.019-.689-4.117-.032-.401-.039-.81-.022-1.227.015-.416.04-.855.072-1.319 0-.43.04-1.263.122-2.499.081-1.231.125-2.204.125-2.913 0-1.665-.091-2.699-.27-3.1-.182-.401-.433-.602-.761-.602-.557 0-1.213.333-1.966.996-.753.663-2.143 2.104-4.174 4.325l-1.472 1.62c0 2.621.105 4.579.319 5.875.213 1.295.318 2.266.318 2.915 0 .833-.352 1.519-1.055 2.058-.704.539-1.482.81-2.334.81-.916 0-1.578-.271-1.987-.81-.411-.539-.55-2.445-.418-5.713l.1-2.869a32.551 32.551 0 0 0-.543-6.917c-.424-2.267-.62-3.354-.588-3.261 0-.955.295-1.681.884-2.175.588-.493 1.326-.74 2.21-.74.884 0 1.538.294 1.964.878.426.586.687 1.682.786 3.286l.097 2.082Zm24.148 0 .936-1.018c1.799-1.974 3.501-3.44 5.106-4.395 1.603-.955 3.061-1.435 4.37-1.435.951 0 1.662.278 2.137.833.474.556.81 2.87 1.006 6.941l.147 3.608c.068 1.665.18 2.908.346 3.725.163.817.26 1.781.293 2.89 0 1.05-.278 1.851-.835 2.406-.557.556-1.276.833-2.16.833-.915 0-1.605-.324-2.064-.971-.456-.648-.686-2.019-.686-4.117a9.792 9.792 0 0 1-.025-1.227c.017-.416.042-.855.072-1.319 0-.43.042-1.263.124-2.499a46.59 46.59 0 0 0 .124-2.913c0-1.665-.092-2.699-.269-3.1-.182-.401-.435-.602-.762-.602-.557 0-1.214.333-1.965.996-.755.663-2.145 2.104-4.174 4.325l-1.474 1.62c0 2.621.107 4.579.32 5.875.213 1.295.317 2.266.317 2.915 0 .833-.35 1.519-1.055 2.058-.704.539-1.482.81-2.332.81-.918 0-1.578-.271-1.989-.81-.411-.539-.548-2.445-.418-5.713l.101-2.869a32.682 32.682 0 0 0-.542-6.917c-.426-2.267-.62-3.354-.59-3.261 0-.955.297-1.681.884-2.175.59-.493 1.326-.74 2.21-.74.884 0 1.541.294 1.965.878.426.586.688 1.682.787 3.286l.095 2.082Zm35.716 10.853c-1.107 1.205-2.717 2.258-4.831 3.159-2.115.904-3.966 1.356-5.561 1.356-2.57 0-4.554-.8-5.954-2.399-1.398-1.599-2.099-3.777-2.099-6.533 0-3.991 1.215-7.435 3.635-10.333 2.424-2.898 5.019-4.364 7.783-4.396 1.007 0 1.886.278 2.636.83.748.556 1.12 1.294 1.12 2.212 0 1.457-.96 3.444-2.877 5.963-1.92 2.517-4.293 5.026-7.124 7.53.325 1.044.813 1.829 1.466 2.352.649.521 1.495.784 2.536.784 1.106 0 2.277-.216 3.513-.642 1.235-.427 2.683-1.132 4.344-2.115.582-.349 1.08-.428 1.487-.237.406.19.627.569.659 1.141 0 .188-.058.388-.172.592-.115.206-.3.451-.561.736Zm-9.563-11.306.975-1.188c.229-.286.473-.633.735-1.045.257-.413.388-.698.388-.856 0-.158-.074-.293-.22-.403a.911.911 0 0 0-.561-.166c-1.201 0-2.439.911-3.707 2.731-1.27 1.821-1.905 3.667-1.905 5.536a69.89 69.89 0 0 0 2.149-2.188 55.51 55.51 0 0 0 2.146-2.421Zm10.584 4.37-.196-2.613c-.163-1.869-.265-3.26-.318-4.18a44.479 44.479 0 0 1-.069-1.807c0-1.33.17-2.176.51-2.541.342-.364.871-.546 1.587-.546 1.073 0 1.844.316 2.316.949.473.635.709 1.776.709 3.421a940.128 940.128 0 0 0-.047 3.422c0 .095.015.189.047.285 1.432-2.375 2.812-4.221 4.147-5.536 1.334-1.314 2.555-1.987 3.658-2.019.879.032 1.588.381 2.122 1.045.539.665.809 1.664.809 2.994 0 .824-.166 1.433-.491 1.829-.325.397-.716.594-1.17.594a2.51 2.51 0 0 1-1.661-.618c-.487-.41-.812-.618-.975-.618-.844 0-1.933 1.221-3.268 3.659-1.333 2.44-1.986 4.214-1.952 5.321 0 .508.024 1.259.073 2.258.048.997.074 1.812.074 2.447 0 1.424-.229 2.5-.684 3.231-.457.726-1.221 1.093-2.29 1.093-.782 0-1.33-.074-1.636-.216-.31-.141-.741-4.092-1.295-11.854Z"/></symbol></defs></svg>