<svg xmlns="http://www.w3.org/2000/svg" width="624" height="177" fill="none"><path fill="#111" d="M93.257 111.394V66.952H51.766v70.416H16.795V66.952H0v-27.32h16.794v-5.194C16.794 14.237 29.044 0 53.544 0c10.471 0 19.56 1.347 27.463 4.232v26.166c-5.335-1.924-11.065-2.886-17.19-2.886-8.1 0-12.051 3.462-12.051 10.39v1.73h41.49V2.692h34.972v100.622c0 5.002 2.37 7.504 7.112 7.504 2.174 0 4.149-.386 5.927-1.347v26.742c-4.939 2.502-11.46 3.655-19.363 3.655-19.165 0-28.647-9.428-28.647-28.474ZM169.132 126.018c-10.866-9.428-16.2-21.934-16.2-37.517 0-14.43 4.939-26.742 14.62-36.555 9.681-9.811 22.523-14.813 38.527-14.813 14.226 0 25.883 4.81 34.774 14.428 9.089 9.428 13.633 21.74 13.633 36.747v8.466H187.31c2.963 10.197 14.818 15.199 29.242 15.199 10.866 0 21.733-2.886 32.204-8.465v26.165c-9.483 6.733-22.721 10.196-39.91 10.196-15.609 0-28.846-4.617-39.714-13.851Zm51.173-47.33c-.198-9.81-7.31-16.544-15.807-16.544-9.285 0-16.002 6.348-17.386 16.544h33.193ZM261.208 137.367l36.156-50.407-33.589-47.328h38.133l16.398 24.24 16.401-24.24h37.933l-33.587 47.136 35.957 50.599h-38.526l-18.573-26.936-18.769 26.936h-37.934ZM387.065 172.574v-29.242c4.941 3.079 10.471 4.617 16.201 4.617 8.892 0 14.423-3.848 18.573-13.853l-42.677-94.463h37.144l22.326 58.872 20.943-58.872h36.356l-44.849 107.546c-8.3 19.816-22.13 29.821-41.69 29.821-8.496 0-16.003-1.539-22.327-4.426ZM475.483 144.842v-23.828c-.033-3.376.18-5.407.639-6.095.458-.689 1.191-1.032 2.204-1.032.755 0 1.316.211 1.679.632.361.423.545 1.306.545 2.65 0 .594-.079 1.611-.237 3.05a35.388 35.388 0 0 0-.19 4.549c3.029-3.69 5.88-6.489 8.546-8.396 2.666-1.907 5.154-2.861 7.459-2.861 1.073 0 1.885.265 2.439.797.552.533.827 1.394.827 2.58 0 4.876-2.028 9.662-6.084 14.352-4.056 4.689-7.426 7.034-10.109 7.034-.411 0-.726-.1-.948-.305-.222-.202-.33-.507-.33-.914 0-.343.101-.688.308-1.031.206-.343.543-.689 1.018-1.032l2.083-1.455c2.24-1.562 4.323-3.83 6.251-6.8 1.923-2.969 2.886-5.361 2.886-7.174 0-.688-.171-1.143-.519-1.36-.347-.22-.822-.111-1.421.326l-2.037 1.501c-3.347 2.472-5.972 5.113-7.883 7.928-1.909 2.811-2.866 5.674-2.866 8.582 0 4.751.064 8.621.191 11.607.124 2.986.3 4.948.522 5.887l.328 1.406c.286 1.282.074 2.472-.636 3.565-.711 1.095-1.586 1.642-2.629 1.642-.726 0-1.286-.291-1.682-.868-.396-.578-.592-1.43-.592-2.556 0-.437.033-1.039.097-1.805.061-.767.092-1.744.092-2.933.033-.124.049-.273.049-.445v-1.007c-.033-.127-.049-.158-.049-.094l.049-6.097ZM507.462 124.735l.052 5.157c0 1.208.14 2.091.417 2.649.279.558.818.821 1.619.792.835.029 1.723-.22 2.661-.745.94-.527 1.829-1.254 2.664-2.183 1.149-1.333 1.941-2.17 2.376-2.51.433-.34.809-.511 1.122-.511.416 0 .738.115.966.347.225.232.34.551.34.954 0 1.797-1.533 3.725-4.595 5.783-3.061 2.062-5.9 3.092-8.51 3.092-1.391 0-2.438-.348-3.132-1.046-.695-.698-1.063-1.99-1.095-3.879a7.123 7.123 0 0 1-.055-.931c0-.34.018-.727.055-1.16.032-2.448.147-6.507.337-12.175.192-5.668.374-9.681.548-12.035.071-1.362.392-2.423.969-3.183.572-.759 1.38-1.153 2.428-1.184.485.031.893.171 1.223.418.331.248.497.621.497 1.114 0 .372-.166 3.005-.497 7.901-.33 4.894-.459 9.339-.39 13.335Z"/><path fill="#111" d="M536.527 133.273v.827c-.032 1.78-.274 2.963-.725 3.548-.454.581-1.179.874-2.178.874-.905 0-1.565-.332-1.985-.99-.42-.66-.515-1.45-.288-2.372a16.148 16.148 0 0 1-3.752 1.496c-1.34.353-2.639.53-3.895.53-2.067 0-3.744-.46-5.033-1.382-1.292-.921-1.921-2.15-1.89-3.684 0-2.764 1.67-5.297 5.01-7.602 3.34-2.302 6.752-2.763 10.236-1.38v-3.04c0-1.043-.21-1.78-.63-2.21-.421-.431-1.049-.645-1.889-.645-.74 0-1.555.183-2.44.553-.89.367-2.511 1.38-4.865 3.039-.969.676-1.769.915-2.397.713-.628-.199-.942-.713-.942-1.542 0-1.29 1.336-2.696 4.016-4.214 2.678-1.521 5.129-2.281 7.357-2.281 2.289 0 3.936.623 4.935 1.866.999 1.245 1.501 3.385 1.501 6.425v7.554c.643-.029 1.192.13 1.644.485.453.351.68.774.68 1.266 0 .491-.219.913-.656 1.267-.435.353-1.04.652-1.814.899Zm-4.841-1.891v-.92c-.03-1.75-.305-2.903-.821-3.455-.517-.553-1.42-.83-2.71-.83-1.615 0-3.114.555-4.501 1.659-1.387 1.106-2.081 2.212-2.081 3.316 0 .676.235 1.229.703 1.659.467.429 1.087.644 1.863.644 1.033.032 2.266-.145 3.701-.53 1.434-.384 2.72-.897 3.846-1.543ZM547.84 122.283l.934-1.018c1.799-1.974 3.502-3.44 5.107-4.395 1.602-.955 3.062-1.435 4.369-1.435.95 0 1.662.278 2.137.833.474.556.81 2.87 1.008 6.941l.146 3.608c.067 1.665.181 2.908.347 3.725.161.817.258 1.781.292 2.89 0 1.05-.279 1.851-.836 2.406-.558.556-1.276.833-2.159.833-.916 0-1.605-.324-2.063-.971-.458-.648-.689-2.019-.689-4.117-.032-.401-.039-.81-.022-1.227.015-.416.04-.855.072-1.319 0-.43.04-1.263.122-2.499.081-1.231.125-2.204.125-2.913 0-1.665-.091-2.699-.27-3.1-.182-.401-.433-.602-.761-.602-.557 0-1.213.333-1.966.996-.753.663-2.143 2.104-4.174 4.325l-1.472 1.62c0 2.621.105 4.579.319 5.875.213 1.295.318 2.266.318 2.915 0 .833-.352 1.519-1.055 2.058-.704.539-1.482.81-2.334.81-.916 0-1.578-.271-1.987-.81-.411-.539-.55-2.445-.418-5.713l.1-2.869a32.551 32.551 0 0 0-.543-6.917c-.424-2.267-.62-3.354-.588-3.261 0-.955.295-1.681.884-2.175.588-.493 1.326-.74 2.21-.74.884 0 1.538.294 1.964.878.426.586.687 1.682.786 3.286l.097 2.082ZM571.988 122.283l.936-1.018c1.799-1.974 3.501-3.44 5.106-4.395 1.603-.955 3.061-1.435 4.37-1.435.951 0 1.662.278 2.137.833.474.556.81 2.87 1.006 6.941l.147 3.608c.068 1.665.18 2.908.346 3.725.163.817.26 1.781.293 2.89 0 1.05-.278 1.851-.835 2.406-.557.556-1.276.833-2.16.833-.915 0-1.605-.324-2.064-.971-.456-.648-.686-2.019-.686-4.117a9.792 9.792 0 0 1-.025-1.227c.017-.416.042-.855.072-1.319 0-.43.042-1.263.124-2.499a46.59 46.59 0 0 0 .124-2.913c0-1.665-.092-2.699-.269-3.1-.182-.401-.435-.602-.762-.602-.557 0-1.214.333-1.965.996-.755.663-2.145 2.104-4.174 4.325l-1.474 1.62c0 2.621.107 4.579.32 5.875.213 1.295.317 2.266.317 2.915 0 .833-.35 1.519-1.055 2.058-.704.539-1.482.81-2.332.81-.918 0-1.578-.271-1.989-.81-.411-.539-.548-2.445-.418-5.713l.101-2.869a32.682 32.682 0 0 0-.542-6.917c-.426-2.267-.62-3.354-.59-3.261 0-.955.297-1.681.884-2.175.59-.493 1.326-.74 2.21-.74.884 0 1.541.294 1.965.878.426.586.688 1.682.787 3.286l.095 2.082ZM607.704 133.136c-1.107 1.205-2.717 2.258-4.831 3.159-2.115.904-3.966 1.356-5.561 1.356-2.57 0-4.554-.8-5.954-2.399-1.398-1.599-2.099-3.777-2.099-6.533 0-3.991 1.215-7.435 3.635-10.333 2.424-2.898 5.019-4.364 7.783-4.396 1.007 0 1.886.278 2.636.83.748.556 1.12 1.294 1.12 2.212 0 1.457-.96 3.444-2.877 5.963-1.92 2.517-4.293 5.026-7.124 7.53.325 1.044.813 1.829 1.466 2.352.649.521 1.495.784 2.536.784 1.106 0 2.277-.216 3.513-.642 1.235-.427 2.683-1.132 4.344-2.115.582-.349 1.08-.428 1.487-.237.406.19.627.569.659 1.141 0 .188-.058.388-.172.592-.115.206-.3.451-.561.736Zm-9.563-11.306.975-1.188c.229-.286.473-.633.735-1.045.257-.413.388-.698.388-.856 0-.158-.074-.293-.22-.403a.911.911 0 0 0-.561-.166c-1.201 0-2.439.911-3.707 2.731-1.27 1.821-1.905 3.667-1.905 5.536a69.89 69.89 0 0 0 2.149-2.188 55.51 55.51 0 0 0 2.146-2.421ZM608.725 126.2l-.196-2.613c-.163-1.869-.265-3.26-.318-4.18a44.479 44.479 0 0 1-.069-1.807c0-1.33.17-2.176.51-2.541.342-.364.871-.546 1.587-.546 1.073 0 1.844.316 2.316.949.473.635.709 1.776.709 3.421a940.128 940.128 0 0 0-.047 3.422c0 .095.015.189.047.285 1.432-2.375 2.812-4.221 4.147-5.536 1.334-1.314 2.555-1.987 3.658-2.019.879.032 1.588.381 2.122 1.045.539.665.809 1.664.809 2.994 0 .824-.166 1.433-.491 1.829-.325.397-.716.594-1.17.594a2.51 2.51 0 0 1-1.661-.618c-.487-.41-.812-.618-.975-.618-.844 0-1.933 1.221-3.268 3.659-1.333 2.44-1.986 4.214-1.952 5.321 0 .508.024 1.259.073 2.258.048.997.074 1.812.074 2.447 0 1.424-.229 2.5-.684 3.231-.457.726-1.221 1.093-2.29 1.093-.782 0-1.33-.074-1.636-.216-.31-.141-.741-4.092-1.295-11.854Z"/></svg>