<svg aria-hidden="true" style="position: absolute; width: 0; height: 0; overflow: hidden;" version="1.1" xmlns="http://www.w3.org/2000/svg" xmlns:xlink="http://www.w3.org/1999/xlink">
  <defs>
    <symbol id="arrow_up" viewBox="0 0 32 32">
      <path stroke-linejoin="round" stroke-linecap="round" stroke-miterlimit="4" stroke-width="2.6667" d="M8 20l8-8 8 8"></path>
    </symbol>
   <symbol id="arrow_down" viewBox="0 0 53 32">
<path d="M0.781 2.114c1.041-1.041 2.73-1.041 3.771 0l22.114 22.114 22.114-22.114c1.041-1.041 2.73-1.041 3.771 0s1.041 2.73 0 3.771l-24 24c-1.041 1.041-2.73 1.041-3.771 0l-24-24c-1.041-1.041-1.041-2.73 0-3.771z"></path>
</symbol>
    <symbol id="arrow_up_solid" viewBox="0 0 32 32">
      <path fill="#000" d="M17.379 4.344c-0.618-1.051-2.14-1.051-2.758 0l-14.621 24.856h32l-14.621-24.856z"></path>
    </symbol>
    <symbol id="brain" viewBox="0 0 32 32">
      <path fill="#f3bb4a" style="fill: var(--color1, #f3bb4a)" d="M5.333 8.607v0.528c-2.4 1.452-4 3.96-4 6.865 0 2.904 1.6 5.412 4 6.864v0.66c0 1.32 0.4 2.509 1.2 3.433 1.067 1.452 2.8 2.376 4.8 2.376 0.534 0 0.934 0 1.467-0.132 1.067-0.264 1.867-1.32 1.867-2.508v-21.386c0-1.188-0.8-2.244-1.867-2.508-0.533-0.132-1.067-0.132-1.6-0.132-3.2 0-5.866 2.64-5.866 5.94zM30.667 16.267c0-2.934-1.6-5.467-4-6.934v-0.667c0-3.333-2.667-6-6-6-0.534 0-0.934 0-1.467 0.134-1.2 0.267-1.866 1.333-1.866 2.533v21.334c0 1.2 0.8 2.266 1.866 2.533 0.4 0.133 0.934 0.133 1.467 0.133 3.333 0 6-2.666 6-6v-0.533c2.533-1.067 4-3.6 4-6.534z"></path>
    </symbol>
    <symbol id="checkbox_checked" viewBox="0 0 32 32">
      <path fill="none" stroke-linejoin="round" stroke-linecap="round" stroke-miterlimit="4" stroke-width="2.6667" stroke="#000" d="M21.143 10.667l-7.467 10.667-3.2-4.267"></path>
      <path fill="none" stroke-linejoin="round" stroke-linecap="butt" stroke-miterlimit="4" stroke-width="2.6667" stroke="#000" d="M26 2.667h-20c-1.841 0-3.333 1.492-3.333 3.333v0 20c0 1.841 1.492 3.333 3.333 3.333v0h20c1.841 0 3.333-1.492 3.333-3.333v0-20c0-1.841-1.492-3.333-3.333-3.333v0z"></path>
    </symbol>
    <symbol id="checked_mark" viewBox="0 0 32 32">
      <path fill="none" stroke-linejoin="round" stroke-linecap="round" stroke-miterlimit="4" stroke-width="2.6667" stroke="#000" d="M21.143 10.667l-7.467 10.667-3.2-4.267"></path>
    </symbol>
    <symbol id="checkbox" viewBox="0 0 32 32">
      <path fill="none" stroke-linejoin="round" stroke-linecap="butt" stroke-miterlimit="4" stroke-width="2.6667" stroke="#000" d="M26 2.667h-20c-1.841 0-3.333 1.492-3.333 3.333v0 20c0 1.841 1.492 3.333 3.333 3.333v0h20c1.841 0 3.333-1.492 3.333-3.333v0-20c0-1.841-1.492-3.333-3.333-3.333v0z"></path>
    </symbol>
    <symbol id="telegram" viewBox="0 0 28 32">
      <path fill="#fff" style="fill: var(--color2, #fff)" d="M26.18 6.163l-3.697 19.925c-0.28 1.406-1.007 1.756-2.040 1.094l-5.633-4.744-2.718 2.988c-0.301 0.344-0.552 0.631-1.132 0.631l0.405-6.556 10.44-10.78c0.454-0.463-0.1-0.72-0.706-0.257l-12.906 9.288-5.556-1.988c-1.209-0.43-1.23-1.38 0.252-2.044l21.731-9.569c1.006-0.43 1.887 0.256 1.559 2.013z"></path>
    </symbol>
    <symbol id="close_modal" viewBox="0 0 32 32">
      <path fill="none" stroke-linejoin="miter" stroke-linecap="round" stroke-miterlimit="4" stroke-width="2.6667" stroke="#000" d="M26.667 26.667l-21.333-21.333M26.667 5.333l-21.333 21.333"></path>
    </symbol>
    <symbol id="confirm" viewBox="0 0 32 32">
      <path fill="#f3bb4a" style="fill: var(--color1, #f3bb4a)" d="M28.84 1.603c-0.526-0.395-1.315-0.395-1.841 0.263l-3.815 4.734c-2.104-1.446-4.603-2.236-7.365-2.236-7.234 0-13.152 5.919-13.152 13.152s5.918 13.15 13.152 13.15c7.234 0 13.152-5.917 13.152-13.15 0-2.63-0.789-4.998-2.104-7.102l-1.841 2.104-7.629 9.6c-0.263 0.264-0.657 0.527-1.052 0.527s-0.657-0.132-0.92-0.395l-5.657-6.050c-0.395-0.394-0.395-1.051-0.263-1.446 0-0.132 0.131-0.263 0.263-0.395 0.232-0.243 0.559-0.395 0.921-0.395s0.689 0.151 0.92 0.394l0 0.001 4.604 4.998 7.233-9.074 1.579-2.105 3.814-4.734c0.658-0.526 0.658-1.315 0-1.841z"></path>
    </symbol>
    <symbol id="exclamation" viewBox="0 0 32 32">
      <path fill="none" stroke-linejoin="round" stroke-linecap="round" stroke-miterlimit="4" stroke-width="3.0476" stroke="#000" d="M16 24.888v0.012M16 19.81v-12.699"></path>
    </symbol>
    <symbol id="fix" viewBox="0 0 32 32">
      <path fill="#f3bb4a" style="fill: var(--color1, #f3bb4a)" d="M8.77 30.667c-1.081 0-2.028-0.402-2.704-1.073l-3.65-3.62c-0.677-0.67-1.083-1.744-1.083-2.682 0-0.939 0.406-2.012 1.082-2.682l4.192-4.425c-0.811-3.486 0-7.107 2.029-9.923 3.38-4.425 9.060-6.034 14.198-4.157 0.406 0.134 0.811 0.537 0.811 0.939s0 0.939-0.405 1.207l-4.057 4.022c-0.676 0.67-1.082 1.61-1.082 2.548 0 0.805 0.406 1.61 0.947 2.146 0.54 0.536 1.352 0.804 2.163 0.804 0.812 0 1.623-0.268 2.164-0.938l4.327-4.291c0.27-0.269 0.811-0.403 1.217-0.403 0.406 0.134 0.811 0.403 0.947 0.805 1.757 4.425 0.54 9.52-2.84 12.873-2.975 2.95-7.302 4.157-11.494 3.218l-4.057 4.425c-0.676 0.805-1.622 1.207-2.704 1.207z"></path>
    </symbol>
    <symbol id="lightning" viewBox="0 0 32 32">
      <path fill="#f3bb4a" style="fill: var(--color1, #f3bb4a)" d="M11.334 30.667c-0.4 0-0.8-0.134-1.2-0.267-1.067-0.533-1.6-1.6-1.334-2.666l1.6-7.734h-2.4c-1.066 0-2-0.666-2.4-1.6-0.4-0.933-0.266-2 0.534-2.666l12.666-13.468c0.8-0.8 2.134-1.067 3.067-0.533 1.067 0.533 1.6 1.6 1.333 2.666l-1.6 7.733h2.4c1.067 0 2 0.667 2.4 1.6s0.267 2-0.533 2.667l-12.667 13.468c-0.533 0.533-1.2 0.8-1.866 0.8z"></path>
    </symbol>
    <symbol id="minus_order" viewBox="0 0 32 32">
      <path fill="none" stroke-linejoin="round" stroke-linecap="round" stroke-miterlimit="4" stroke-width="2.2857" stroke="#000" d="M6.667 16h18.665"></path>
    </symbol>
    <symbol id="instagram" viewBox="0 0 32 32">
      <path fill="#fff" style="fill: var(--color2, #fff)" d="M16 10c-3.314 0-6 2.686-6 6s2.686 6 6 6v0c3.314 0 6-2.686 6-6s-2.686-6-6-6v0zM16 20c-2.209 0-4-1.791-4-4s1.791-4 4-4c2.209 0 4 1.791 4 4v0c-0.007 2.206-1.794 3.993-3.999 4h-0.001zM21.5 3.5h-11c-3.866 0-7 3.134-7 7v0 11c0 3.866 3.134 7 7 7v0h11c3.866 0 7-3.134 7-7v0-11c0-3.866-3.134-7-7-7v0zM26.5 21.5c0 2.761-2.239 5-5 5v0h-11c-2.761 0-5-2.239-5-5v0-11c0-2.761 2.239-5 5-5v0h11c2.761 0 5 2.239 5 5v0 11zM24 9.5c0 0.828-0.672 1.5-1.5 1.5s-1.5-0.672-1.5-1.5v0c0-0.828 0.672-1.5 1.5-1.5s1.5 0.672 1.5 1.5v0z"></path>
    </symbol>
    <symbol id="pin" viewBox="0 0 32 32">
      <path fill="#f3bb4a" style="fill: var(--color1, #f3bb4a)" d="M30.228 12.389l-10.542-10.613c-0.586-0.59-1.464-0.59-2.050 0-0.271 0.261-0.439 0.627-0.439 1.032s0.168 0.771 0.438 1.031l0 0 0.293 0.295-8.492 6.044-4.685 0.59c-1.464 0.294-2.782 1.326-3.22 2.653-0.44 1.326-0.147 2.948 0.878 3.832l5.124 5.16-3.66 3.684c-0.271 0.261-0.439 0.627-0.439 1.032s0.168 0.771 0.439 1.032l0 0c0.293 0.295 0.732 0.442 1.025 0.442 0.292 0 0.732-0.147 1.024-0.442l3.66-3.685 5.125 5.159c0.732 0.737 1.61 1.032 2.635 1.032 0.44 0 0.879 0 1.172-0.148 1.464-0.442 2.489-1.768 2.635-3.242l0.732-4.717 5.857-8.402 0.439 0.442c0.293 0.295 0.732 0.442 1.025 0.442s0.732-0.147 1.025-0.442c0.585-0.59 0.585-1.622 0-2.211z"></path>
    </symbol>
    <symbol id="plus" viewBox="0 0 32 32">
      <path stroke-linejoin="miter" stroke-linecap="butt" stroke-miterlimit="4" stroke-width="0" d="M16 0.552c8.532 0 15.448 6.916 15.448 15.448s-6.916 15.448-15.448 15.448c-8.532 0-15.448-6.916-15.448-15.448s6.916-15.448 15.448-15.448z"></path>
      <path stroke-linejoin="round" stroke-linecap="round" stroke-miterlimit="4" stroke-width="1.6547" d="M12.029 16h7.944M16 12.027v7.947"></path>
    </symbol>
    <symbol id="plus_order" viewBox="0 0 32 32">
      <path fill="none" stroke-linejoin="round" stroke-linecap="round" stroke-miterlimit="4" stroke-width="2.2857" stroke="#000" d="M16 6.667v18.665M6.667 16h18.665"></path>
    </symbol>
    <symbol id="quotes" viewBox="0 0 32 32">
      <path fill="#fff" style="fill: var(--color2, #fff)" d="M23.799 14.531c-1.546 0.613-2.786 0.451-3.719-0.481-0.934-0.934-1.211-2.422-0.831-4.463 0.291-1.517 0.933-2.683 1.925-3.501 0.962-0.787 2.086-1.181 3.369-1.181 1.749 0 2.96 0.671 3.631 2.011 0.671 1.371 0.802 3.209 0.393 5.513-0.279 1.446-0.672 2.721-1.185 3.933l0.048-0.128c-0.526 1.285-1.225 2.597-2.099 3.938-0.875 1.342-2.013 2.509-3.413 3.501-1.31 0.943-2.875 1.619-4.571 1.915l-0.067 0.010 0.438-4.638c1.429-0.291 2.697-1.035 3.806-2.231 1.109-1.167 1.867-2.567 2.274-4.2zM10.63 14.531c-1.545 0.613-2.785 0.451-3.719-0.481-0.933-0.934-1.21-2.422-0.831-4.463 0.291-1.517 0.934-2.683 1.925-3.501 0.962-0.787 2.086-1.181 3.369-1.181 1.75 0 2.96 0.671 3.631 2.011 0.671 1.371 0.802 3.209 0.394 5.513-0.279 1.446-0.672 2.721-1.185 3.933l0.048-0.128c-0.526 1.285-1.225 2.597-2.101 3.938s-2.013 2.509-3.413 3.501c-1.31 0.943-2.875 1.619-4.571 1.915l-0.067 0.010 0.438-4.638c1.429-0.291 2.697-1.035 3.806-2.231 1.109-1.167 1.867-2.567 2.275-4.2z"></path>
    </symbol>
    <symbol id="radio_button_checked" viewBox="0 0 32 32">
      <path fill="none" stroke="#3c3b3b" style="stroke: var(--color3, #3c3b3b)" stroke-linejoin="miter" stroke-linecap="butt" stroke-miterlimit="4" stroke-width="1.6" d="M31.2 16c0 8.395-6.805 15.2-15.2 15.2s-15.2-6.805-15.2-15.2c0-8.395 6.805-15.2 15.2-15.2s15.2 6.805 15.2 15.2z"></path>
      <path fill="#01a045" style="fill: var(--color4, #01a045)" d="M24 16c0 4.418-3.582 8-8 8s-8-3.582-8-8c0-4.418 3.582-8 8-8s8 3.582 8 8z"></path>
    </symbol>
    <symbol id="radio_button" viewBox="0 0 32 32">
      <path fill="none" stroke-linejoin="miter" stroke-linecap="butt" stroke-miterlimit="4" stroke-width="1.6" stroke="#000" d="M31.2 16c0 8.395-6.805 15.2-15.2 15.2s-15.2-6.805-15.2-15.2c0-8.395 6.805-15.2 15.2-15.2s15.2 6.805 15.2 15.2z"></path>
    </symbol>
    <symbol id="stars" viewBox="0 0 32 32">
      <path fill="#f3bb4a" style="fill: var(--color1, #f3bb4a)" d="M20.8 20.933c-0.534 0-0.934-0.266-1.2-0.666l-1.6-2.8c-0.667-1.467-2-2.8-3.467-3.6l-2.8-1.6c-0.4-0.133-0.667-0.667-0.667-1.067 0-0.533 0.267-0.933 0.667-1.2l2.8-1.6c1.467-0.8 2.8-2 3.6-3.6l1.6-2.8c0.133-0.4 0.667-0.667 1.067-0.667 0.533 0 0.933 0.267 1.2 0.667l1.6 2.8c0.859 1.518 2.082 2.741 3.554 3.576l0.046 0.024 2.8 1.6c0.4 0.267 0.666 0.667 0.666 1.2 0 0.534-0.266 0.934-0.666 1.2l-2.8 1.6c-1.518 0.859-2.741 2.082-3.576 3.554l-0.024 0.046-1.6 2.8c-0.267 0.267-0.667 0.534-1.2 0.534zM8.667 30.666c-0.534 0-0.933-0.266-1.2-0.666l-0.8-1.6c-0.675-1.334-1.732-2.392-3.028-3.049l-0.039-0.018-1.6-0.8c-0.4-0.267-0.667-0.8-0.667-1.2 0-0.533 0.267-0.933 0.667-1.2l1.6-0.8c1.334-0.675 2.392-1.733 3.049-3.028l0.018-0.039 0.8-1.6c0.533-0.8 1.867-0.8 2.4 0l0.8 1.6c0.675 1.334 1.732 2.392 3.027 3.049l0.039 0.018 1.6 0.8c0.4 0.267 0.667 0.667 0.667 1.2s-0.267 0.933-0.666 1.2l-1.467 0.8c-1.335 0.675-2.392 1.733-3.049 3.028l-0.018 0.039-0.8 1.6c-0.4 0.4-0.8 0.666-1.333 0.666z"></path>
    </symbol>
    <symbol id="warning" viewBox="0 0 32 32">
      <path fill="#f7434b" style="fill: var(--color5, #f7434b)" d="M16 22.666c0.378 0 0.694-0.128 0.95-0.384 0.256-0.254 0.384-0.571 0.384-0.949 0-0.009 0-0.019 0-0.030 0-0.36-0.147-0.686-0.384-0.92l-0-0c-0.235-0.237-0.56-0.384-0.92-0.384-0.011 0-0.021 0-0.031 0l0.002-0c-0.009-0-0.021-0-0.032-0-0.359 0-0.684 0.147-0.918 0.384l-0 0c-0.237 0.234-0.384 0.56-0.384 0.919 0 0.011 0 0.022 0 0.033l-0-0.002c0 0.378 0.128 0.694 0.384 0.95s0.573 0.384 0.95 0.384zM16 29.333c-0.026 0-0.056 0-0.087 0-1.848 0-3.606-0.386-5.197-1.082l0.083 0.033c-1.644-0.709-3.049-1.67-4.234-2.85l0 0c-1.179-1.185-2.14-2.59-2.814-4.147l-0.034-0.087c-0.666-1.51-1.053-3.27-1.053-5.121 0-0.028 0-0.056 0-0.084l-0 0.004c-0-0.026-0-0.056-0-0.087 0-1.848 0.386-3.606 1.082-5.197l-0.033 0.083c0.709-1.644 1.67-3.049 2.85-4.234l-0 0c1.186-1.18 2.591-2.142 4.148-2.818l0.087-0.034c1.508-0.663 3.265-1.048 5.112-1.048 0.031 0 0.062 0 0.092 0l-0.005-0c1.845 0 3.578 0.349 5.2 1.048 1.644 0.71 3.048 1.671 4.234 2.852l-0-0c1.179 1.185 2.14 2.59 2.814 4.147l0.034 0.087c0.665 1.509 1.051 3.268 1.051 5.117 0 0.029-0 0.058-0 0.088l0-0.005c0 0.026 0 0.056 0 0.087 0 1.848-0.386 3.606-1.082 5.197l0.033-0.083c-0.709 1.644-1.67 3.049-2.85 4.234l0-0c-1.185 1.179-2.59 2.14-4.147 2.814l-0.087 0.034c-1.509 0.665-3.268 1.051-5.117 1.051-0.029 0-0.058-0-0.088-0l0.004 0zM16 17.333c0.378 0 0.694-0.128 0.95-0.384s0.384-0.571 0.384-0.949v-5.333c0-0.009 0-0.020 0-0.031 0-0.36-0.147-0.686-0.384-0.92l-0-0c-0.234-0.236-0.559-0.383-0.918-0.383-0.011 0-0.023 0-0.034 0l0.002-0c-0.009-0-0.021-0-0.032-0-0.359 0-0.684 0.147-0.918 0.384l-0 0c-0.237 0.234-0.384 0.56-0.384 0.919 0 0.010 0 0.021 0 0.031l-0-0.002v5.334c0 0.378 0.128 0.694 0.384 0.949 0.256 0.256 0.573 0.384 0.95 0.384z"></path>
    </symbol>
    <symbol id="reset_order" viewBox="0 0 15 14">
      <path stroke="#000" stroke-linecap="round" stroke-linejoin="round" stroke-width="1.5" d="m11.344 3.5-7 7M4.344 3.5l7 7"/>
    </symbol>

  </defs>
</svg>
