<svg width="266" height="82" viewBox="0 0 266 82" fill="none" xmlns="http://www.w3.org/2000/svg">
<path d="M43.1405 51.6064V31.0175H24.1692V63.6395H8.17912V31.0175H0.5V18.361H8.17912V15.9546C8.17912 6.59591 13.78 0.000205994 24.9825 0.000205994C29.7702 0.000205994 33.926 0.624245 37.5396 1.96085V14.0831C35.1 13.1916 32.4803 12.7459 29.6798 12.7459C25.9758 12.7459 24.1692 14.3499 24.1692 17.5593V18.361H43.1405V1.24767H59.1307V47.8634C59.1307 50.1806 60.2143 51.3396 62.3829 51.3396C63.3768 51.3396 64.2798 51.1607 65.093 50.7156V63.1046C62.8347 64.2636 59.8529 64.7979 56.2393 64.7979C47.4765 64.7979 43.1405 60.4302 43.1405 51.6064Z" fill="#111111"/>
<path d="M77.8337 58.381C72.8653 54.0134 70.4263 48.2195 70.4263 41.0003C70.4263 34.3155 72.6846 28.6112 77.1115 24.0653C81.5377 19.52 87.4097 17.2028 94.7274 17.2028C101.232 17.2028 106.562 19.4309 110.627 23.8871C114.783 28.2547 116.861 33.9589 116.861 40.9112V44.8331H86.1453C87.5001 49.5573 92.9209 51.8745 99.5157 51.8745C104.484 51.8745 109.453 50.5373 114.241 47.9526V60.0743C109.905 63.1938 103.852 64.7979 95.9924 64.7979C88.8554 64.7979 82.8027 62.6589 77.8337 58.381ZM101.232 36.4544C101.142 31.9091 97.8893 28.7896 94.0046 28.7896C89.759 28.7896 86.6875 31.7308 86.055 36.4544H101.232Z" fill="#111111"/>
<path d="M119.934 63.6392L136.466 40.2868L121.108 18.3607H138.544L146.042 29.5909L153.541 18.3607H170.885L155.528 40.1976L171.969 63.6392H154.353L145.861 51.1603L137.279 63.6392H119.934Z" fill="#111111"/>
<path d="M177.481 79.9496V66.4022C179.74 67.8286 182.269 68.5411 184.889 68.5411C188.955 68.5411 191.484 66.7588 193.381 62.1237L173.868 18.3607H190.851L201.06 45.635L210.636 18.3607H227.259L206.752 68.1846C202.957 77.365 196.633 82 187.69 82C183.805 82 180.373 81.2868 177.481 79.9496Z" fill="#111111"/>
<path d="M217.691 69.2164V61.3672C217.68 60.255 217.751 59.5861 217.902 59.3593C218.054 59.1326 218.296 59.0195 218.631 59.0195C218.881 59.0195 219.067 59.0889 219.187 59.2277C219.306 59.3671 219.367 59.6579 219.367 60.1006C219.367 60.2963 219.341 60.6313 219.288 61.1052C219.236 61.579 219.215 62.0786 219.225 62.6039C220.227 61.3882 221.17 60.4662 222.052 59.838C222.934 59.2097 223.757 58.8956 224.519 58.8956C224.874 58.8956 225.142 58.983 225.325 59.1583C225.508 59.3336 225.599 59.6172 225.599 60.0079C225.599 61.6143 224.928 63.1909 223.587 64.7357C222.245 66.2805 221.131 67.0529 220.244 67.0529C220.108 67.0529 220.003 67.02 219.93 66.9524C219.857 66.886 219.821 66.7855 219.821 66.6515C219.821 66.5384 219.854 66.4247 219.923 66.3116C219.991 66.1985 220.102 66.0849 220.259 65.9718L220.948 65.4925C221.689 64.978 222.378 64.2307 223.016 63.2525C223.652 62.2743 223.97 61.4863 223.97 60.8892C223.97 60.6624 223.914 60.5128 223.798 60.441C223.684 60.3686 223.527 60.4045 223.328 60.5487L222.655 61.0429C221.548 61.8572 220.68 62.7272 220.048 63.6545C219.416 64.5807 219.1 65.5237 219.1 66.4815C219.1 68.0467 219.121 69.3217 219.163 70.3053C219.204 71.2889 219.262 71.9351 219.336 72.2444L219.444 72.7075C219.539 73.1299 219.469 73.5218 219.234 73.882C218.999 74.2427 218.709 74.4229 218.364 74.4229C218.124 74.4229 217.939 74.3271 217.808 74.1368C217.677 73.9466 217.612 73.666 217.612 73.295C217.612 73.1508 217.623 72.9528 217.644 72.7003C217.664 72.4478 217.675 72.1259 217.675 71.7341C217.686 71.6934 217.691 71.6443 217.691 71.5875C217.691 71.5312 217.691 71.4199 217.691 71.256C217.68 71.2141 217.675 71.204 217.675 71.2249C217.675 71.2453 217.68 70.5757 217.691 69.2164Z" fill="#111111"/>
<path d="M228.23 62.7432L228.246 64.458C228.246 64.8594 228.288 65.1532 228.371 65.3387C228.455 65.5241 228.617 65.6115 228.857 65.6019C229.107 65.6115 229.373 65.5289 229.655 65.3542C229.937 65.1789 230.204 64.9372 230.454 64.6285C230.799 64.1851 231.036 63.9069 231.167 63.7938C231.296 63.6808 231.409 63.6239 231.503 63.6239C231.628 63.6239 231.725 63.6622 231.793 63.7394C231.86 63.8166 231.895 63.9225 231.895 64.0565C231.895 64.6542 231.435 65.295 230.517 65.9794C229.598 66.6651 228.747 67.0073 227.964 67.0073C227.547 67.0073 227.233 66.8919 227.025 66.6597C226.816 66.4276 226.706 65.998 226.696 65.3698C226.685 65.277 226.68 65.1741 226.68 65.0604C226.68 64.9474 226.685 64.8187 226.696 64.6745C226.706 63.8609 226.74 62.5111 226.797 60.6264C226.855 58.7418 226.91 57.4075 226.962 56.625C226.983 56.172 227.079 55.819 227.252 55.5666C227.424 55.3141 227.666 55.1831 227.98 55.1729C228.126 55.1831 228.248 55.2297 228.347 55.3117C228.447 55.3942 228.497 55.5181 228.497 55.682C228.497 55.8059 228.447 56.6812 228.347 58.3092C228.248 59.9366 228.21 61.4144 228.23 62.7432Z" fill="#111111"/>
<path d="M237.438 65.6015V65.8791C237.427 66.4762 237.349 66.8729 237.203 67.0691C237.056 67.2642 236.821 67.3623 236.498 67.3623C236.205 67.3623 235.992 67.251 235.856 67.0302C235.72 66.8089 235.689 66.5438 235.763 66.2345C235.387 66.4505 234.982 66.6186 234.549 66.7365C234.115 66.8549 233.695 66.9142 233.288 66.9142C232.619 66.9142 232.077 66.7598 231.659 66.4505C231.242 66.1418 231.038 65.7295 231.048 65.215C231.048 64.2876 231.589 63.438 232.669 62.665C233.75 61.8926 234.854 61.7382 235.981 62.2019V61.1824C235.981 60.8324 235.914 60.5853 235.778 60.4411C235.641 60.2963 235.438 60.2245 235.166 60.2245C234.927 60.2245 234.663 60.2861 234.377 60.41C234.089 60.5332 233.564 60.8731 232.803 61.4295C232.489 61.6563 232.23 61.7364 232.027 61.6688C231.824 61.6018 231.722 61.4295 231.722 61.1513C231.722 60.7187 232.154 60.2473 233.022 59.7381C233.888 59.2278 234.681 58.9729 235.402 58.9729C236.143 58.9729 236.676 59.1817 236.999 59.5987C237.322 60.0163 237.485 60.7343 237.485 61.7538V64.2876C237.693 64.2781 237.87 64.3313 238.017 64.4503C238.163 64.5682 238.237 64.71 238.237 64.8752C238.237 65.0397 238.166 65.1815 238.025 65.3C237.884 65.4184 237.688 65.5189 237.438 65.6015ZM235.871 64.9673V64.6586C235.861 64.0716 235.772 63.6851 235.605 63.4996C235.438 63.3142 235.146 63.2214 234.729 63.2214C234.206 63.2214 233.721 63.4075 233.272 63.7779C232.823 64.1488 232.599 64.5198 232.599 64.8901C232.599 65.1169 232.675 65.3023 232.826 65.4465C232.977 65.5907 233.178 65.6625 233.429 65.6625C233.763 65.6733 234.162 65.6141 234.627 65.4848C235.091 65.3562 235.507 65.1839 235.871 64.9673Z" fill="#111111"/>
<path d="M241.039 61.9393L241.336 61.5994C241.91 60.9401 242.453 60.4507 242.965 60.1318C243.476 59.8129 243.942 59.6526 244.358 59.6526C244.661 59.6526 244.888 59.7453 245.04 59.9308C245.191 60.1163 245.298 60.8893 245.361 62.2486L245.408 63.4536C245.429 64.0094 245.466 64.4246 245.518 64.6975C245.57 64.9703 245.601 65.2922 245.612 65.6625C245.612 66.0131 245.523 66.2806 245.345 66.4661C245.167 66.6515 244.938 66.7443 244.657 66.7443C244.364 66.7443 244.145 66.636 243.999 66.42C243.852 66.2034 243.779 65.7457 243.779 65.0451C243.769 64.9111 243.766 64.7746 243.772 64.6352C243.777 64.4964 243.785 64.3499 243.795 64.1949C243.795 64.0513 243.808 63.7731 243.834 63.3603C243.86 62.9492 243.874 62.6243 243.874 62.3874C243.874 61.8316 243.845 61.4864 243.788 61.3524C243.729 61.2183 243.649 61.1513 243.545 61.1513C243.367 61.1513 243.158 61.2626 242.918 61.484C242.678 61.7054 242.235 62.1864 241.587 62.9283L241.117 63.4691C241.117 64.3445 241.151 64.9984 241.219 65.431C241.287 65.8636 241.321 66.1878 241.321 66.4044C241.321 66.6826 241.208 66.9118 240.984 67.0919C240.76 67.272 240.512 67.3623 240.24 67.3623C239.948 67.3623 239.737 67.272 239.606 67.0919C239.475 66.9118 239.431 66.2752 239.473 65.1839L239.505 64.226C239.525 63.4434 239.468 62.6734 239.332 61.9159C239.196 61.1591 239.134 60.7959 239.144 60.827C239.144 60.5081 239.238 60.2658 239.426 60.1007C239.614 59.9362 239.849 59.8536 240.131 59.8536C240.413 59.8536 240.621 59.9517 240.757 60.1468C240.893 60.3424 240.976 60.7086 241.008 61.2441L241.039 61.9393Z" fill="#111111"/>
<path d="M248.76 61.9393L249.058 61.5994C249.632 60.9401 250.174 60.4507 250.686 60.1318C251.198 59.8129 251.663 59.6526 252.08 59.6526C252.383 59.6526 252.61 59.7453 252.761 59.9308C252.912 60.1163 253.02 60.8893 253.082 62.2486L253.129 63.4536C253.151 64.0094 253.187 64.4246 253.239 64.6975C253.291 64.9703 253.322 65.2922 253.333 65.6625C253.333 66.0131 253.244 66.2806 253.067 66.4661C252.889 66.6515 252.66 66.7443 252.378 66.7443C252.086 66.7443 251.866 66.636 251.72 66.42C251.574 66.2034 251.501 65.7457 251.501 65.0451C251.49 64.9111 251.487 64.7746 251.493 64.6352C251.498 64.4964 251.506 64.3499 251.516 64.1949C251.516 64.0513 251.529 63.7731 251.555 63.3603C251.581 62.9492 251.595 62.6243 251.595 62.3874C251.595 61.8316 251.566 61.4864 251.509 61.3524C251.451 61.2183 251.37 61.1513 251.266 61.1513C251.088 61.1513 250.879 61.2626 250.64 61.484C250.399 61.7054 249.956 62.1864 249.309 62.9283L248.839 63.4691C248.839 64.3445 248.873 64.9984 248.94 65.431C249.008 65.8636 249.042 66.1878 249.042 66.4044C249.042 66.6826 248.93 66.9118 248.705 67.0919C248.481 67.272 248.233 67.3623 247.962 67.3623C247.669 67.3623 247.458 67.272 247.327 67.0919C247.196 66.9118 247.153 66.2752 247.194 65.1839L247.226 64.226C247.246 63.4434 247.189 62.6734 247.053 61.9159C246.917 61.1591 246.856 60.7959 246.865 60.827C246.865 60.5081 246.96 60.2658 247.147 60.1007C247.335 59.9362 247.57 59.8536 247.852 59.8536C248.134 59.8536 248.343 59.9517 248.478 60.1468C248.614 60.3424 248.698 60.7086 248.729 61.2441L248.76 61.9393Z" fill="#111111"/>
<path d="M260.27 65.4776C259.915 65.8694 259.398 66.2117 258.719 66.5049C258.041 66.7986 257.447 66.9458 256.935 66.9458C256.11 66.9458 255.473 66.6855 255.024 66.1656C254.575 65.6457 254.35 64.9373 254.35 64.041C254.35 62.7433 254.74 61.6233 255.517 60.6809C256.295 59.7386 257.128 59.2618 258.015 59.2516C258.338 59.2516 258.62 59.3419 258.861 59.5214C259.101 59.7021 259.22 59.942 259.22 60.2406C259.22 60.7145 258.912 61.3606 258.297 62.1797C257.681 62.9982 256.919 63.8143 256.01 64.6286C256.115 64.9678 256.271 65.2233 256.481 65.3932C256.689 65.5625 256.961 65.6481 257.295 65.6481C257.65 65.6481 258.026 65.5781 258.422 65.4393C258.819 65.3005 259.283 65.0713 259.816 64.7518C260.003 64.6381 260.163 64.6124 260.294 64.6746C260.424 64.7363 260.495 64.8595 260.505 65.0456C260.505 65.1066 260.486 65.1718 260.45 65.2382C260.413 65.3052 260.354 65.3848 260.27 65.4776ZM257.201 61.801L257.514 61.4145C257.587 61.3217 257.665 61.2087 257.75 61.0746C257.832 60.9406 257.874 60.8479 257.874 60.7964C257.874 60.745 257.85 60.7013 257.804 60.6654C257.756 60.6295 257.696 60.6115 257.624 60.6115C257.238 60.6115 256.841 60.9077 256.434 61.4994C256.026 62.0918 255.822 62.6919 255.822 63.2997C256.052 63.073 256.282 62.8355 256.512 62.5884C256.741 62.3413 256.971 62.0792 257.201 61.801Z" fill="#111111"/>
<path d="M260.598 63.2221L260.535 62.3725C260.483 61.7646 260.45 61.3123 260.433 61.0132C260.418 60.7146 260.411 60.5183 260.411 60.4256C260.411 59.993 260.465 59.7178 260.574 59.5994C260.684 59.4809 260.854 59.4217 261.084 59.4217C261.428 59.4217 261.676 59.5246 261.827 59.7304C261.979 59.9368 262.055 60.3078 262.055 60.8426C262.044 61.554 262.039 61.9244 262.039 61.9555C262.039 61.9866 262.044 62.0171 262.055 62.0482C262.514 61.2758 262.957 60.6757 263.386 60.2479C263.814 59.8207 264.206 59.6018 264.56 59.5916C264.842 59.6018 265.069 59.7154 265.241 59.9314C265.414 60.1474 265.5 60.4723 265.5 60.9049C265.5 61.1729 265.447 61.3709 265.343 61.4996C265.238 61.6288 265.113 61.6928 264.967 61.6928C264.768 61.6928 264.592 61.6258 264.434 61.4918C264.278 61.3584 264.173 61.2908 264.121 61.2908C263.85 61.2908 263.501 61.688 263.072 62.4808C262.645 63.2741 262.435 63.8509 262.446 64.2111C262.446 64.3762 262.454 64.6203 262.469 64.9452C262.485 65.2695 262.493 65.5345 262.493 65.741C262.493 66.204 262.42 66.5541 262.274 66.7916C262.127 67.0279 261.882 67.147 261.539 67.147C261.288 67.147 261.112 67.123 261.013 67.077C260.914 67.0309 260.776 65.7463 260.598 63.2221Z" fill="#111111"/>
</svg>
